<svg fill="#000000" xmlns="http://www.w3.org/2000/svg"  viewBox="0 0 64 64" width="512px" height="512px"><path d="M 13 6 C 9.140625 6 6 9.140625 6 13 L 6 51 C 6 54.859375 9.140625 58 13 58 L 51 58 C 54.859375 58 58 54.859375 58 51 L 58 13 C 58 9.140625 54.859375 6 51 6 Z M 13 8 L 51 8 C 53.757813 8 56 10.242188 56 13 L 56 51 C 56 53.757813 53.757813 56 51 56 L 13 56 C 10.242188 56 8 53.757813 8 51 L 8 13 C 8 10.242188 10.242188 8 13 8 Z M 12 12 C 11.445313 12 11 12.445313 11 13 L 11 15 C 11 15.554688 11.445313 16 12 16 C 12.554688 16 13 15.554688 13 15 L 13 13 C 13 12.445313 12.554688 12 12 12 Z M 17 12 C 16.445313 12 16 12.445313 16 13 L 16 15 C 16 15.554688 16.445313 16 17 16 C 17.554688 16 18 15.554688 18 15 L 18 13 C 18 12.445313 17.554688 12 17 12 Z M 22 12 C 21.445313 12 21 12.445313 21 13 L 21 15 C 21 15.554688 21.445313 16 22 16 C 22.554688 16 23 15.554688 23 15 L 23 13 C 23 12.445313 22.554688 12 22 12 Z M 27 12 C 26.445313 12 26 12.445313 26 13 L 26 15 C 26 15.554688 26.445313 16 27 16 C 27.554688 16 28 15.554688 28 15 L 28 13 C 28 12.445313 27.554688 12 27 12 Z M 32 12 C 31.445313 12 31 12.445313 31 13 L 31 15 C 31 15.554688 31.445313 16 32 16 C 32.554688 16 33 15.554688 33 15 L 33 13 C 33 12.445313 32.554688 12 32 12 Z M 37 12 C 36.445313 12 36 12.445313 36 13 L 36 15 C 36 15.554688 36.445313 16 37 16 C 37.554688 16 38 15.554688 38 15 L 38 13 C 38 12.445313 37.554688 12 37 12 Z M 42 12 C 41.445313 12 41 12.445313 41 13 L 41 15 C 41 15.554688 41.445313 16 42 16 C 42.554688 16 43 15.554688 43 15 L 43 13 C 43 12.445313 42.554688 12 42 12 Z M 47 12 C 46.445313 12 46 12.445313 46 13 L 46 15 C 46 15.554688 46.445313 16 47 16 C 47.554688 16 48 15.554688 48 15 L 48 13 C 48 12.445313 47.554688 12 47 12 Z M 52 12 C 51.445313 12 51 12.445313 51 13 L 51 15 C 51 15.554688 51.445313 16 52 16 C 52.554688 16 53 15.554688 53 15 L 53 13 C 53 12.445313 52.554688 12 52 12 Z M 31.726563 18.792969 C 29.964844 18.804688 27.410156 19.183594 25.238281 20.894531 C 23.863281 21.980469 22.769531 23.421875 22.074219 25.0625 C 22.066406 25.082031 22.058594 25.105469 22.050781 25.125 C 21.417969 26.765625 21.445313 28.425781 21.535156 30.121094 C 21.550781 30.382813 21.566406 30.648438 21.582031 30.90625 C 21.609375 31.355469 21.636719 31.789063 21.640625 32.191406 C 21.535156 32.179688 21.417969 32.160156 21.300781 32.140625 C 21.285156 32.136719 21.265625 32.132813 21.246094 32.128906 C 21.066406 32.097656 20.886719 32.035156 20.691406 31.972656 C 20.550781 31.929688 20.402344 31.882813 20.183594 31.824219 C 19.535156 31.671875 18.84375 31.824219 18.28125 32.230469 C 18.273438 32.234375 18.273438 32.234375 18.265625 32.238281 C 17.59375 32.683594 17.242188 33.261719 17.21875 33.957031 C 17.214844 34.03125 17.226563 34.199219 17.238281 34.269531 C 17.328125 34.714844 17.566406 35.125 17.945313 35.453125 C 18.082031 35.574219 18.214844 35.667969 18.34375 35.75 C 18.371094 35.777344 18.421875 35.816406 18.453125 35.839844 C 19.132813 36.296875 19.835938 36.546875 20.457031 36.769531 C 20.628906 36.832031 20.800781 36.890625 20.921875 36.9375 C 21.222656 37.070313 21.367188 37.214844 21.386719 37.246094 C 21.417969 37.390625 21.386719 37.703125 21.0625 38.375 C 20.316406 39.859375 19.210938 41.140625 17.871094 42.070313 C 17.1875 42.542969 16.421875 42.894531 15.5625 43.125 C 15.542969 43.136719 15.449219 43.164063 15.421875 43.171875 C 15.148438 43.25 14.503906 43.429688 14.0625 44.097656 C 14 44.199219 13.945313 44.304688 13.910156 44.410156 C 13.71875 44.972656 13.84375 45.636719 14.230469 46.105469 C 14.476563 46.402344 14.746094 46.566406 14.914063 46.65625 C 15.75 47.136719 16.613281 47.359375 17.378906 47.550781 L 17.59375 47.609375 C 17.753906 47.644531 17.910156 47.675781 18.0625 47.707031 C 18.234375 47.742188 18.394531 47.773438 18.535156 47.8125 C 18.582031 47.96875 18.617188 48.140625 18.65625 48.324219 C 18.714844 48.59375 18.777344 48.878906 18.863281 49.171875 C 19.011719 49.664063 19.433594 50.050781 19.933594 50.15625 C 20.414063 50.261719 20.773438 50.171875 20.960938 50.105469 C 22.214844 49.886719 23.328125 49.726563 24.269531 49.964844 C 25.050781 50.167969 25.820313 50.671875 26.640625 51.203125 C 26.925781 51.394531 27.21875 51.585938 27.484375 51.75 C 27.519531 51.773438 27.558594 51.792969 27.59375 51.8125 C 28.464844 52.363281 29.519531 52.917969 30.78125 52.980469 C 30.800781 52.980469 30.820313 52.980469 30.839844 52.984375 C 31.082031 52.992188 31.324219 53 31.5625 53 C 32.191406 53 32.785156 52.960938 33.289063 52.921875 C 33.320313 52.921875 33.367188 52.921875 33.402344 52.921875 C 34.226563 52.839844 35.03125 52.558594 35.703125 52.125 C 36.203125 51.84375 36.679688 51.535156 37.152344 51.230469 C 37.855469 50.777344 38.523438 50.347656 39.238281 50.015625 C 39.421875 49.960938 39.722656 49.945313 40.039063 49.929688 L 40.390625 49.90625 C 41.351563 49.882813 42.335938 49.929688 43.339844 50.0625 C 43.445313 50.078125 43.554688 50.074219 43.675781 50.0625 C 44.0625 50.015625 44.453125 49.792969 44.699219 49.484375 C 44.867188 49.265625 44.933594 49.070313 44.988281 48.886719 C 45 48.855469 45.007813 48.824219 45.015625 48.796875 C 45.015625 48.789063 45.015625 48.789063 45.015625 48.785156 L 45.128906 48.386719 C 45.191406 48.164063 45.265625 47.898438 45.3125 47.765625 C 45.367188 47.761719 45.425781 47.761719 45.464844 47.753906 C 46.367188 47.648438 47.175781 47.355469 47.886719 47.09375 L 48.121094 47.011719 C 48.144531 47 48.289063 46.945313 48.3125 46.933594 C 48.640625 46.792969 49.179688 46.570313 49.597656 46.015625 C 49.644531 45.960938 49.683594 45.902344 49.714844 45.839844 C 49.929688 45.476563 50.007813 45.042969 49.921875 44.628906 C 49.839844 44.210938 49.601563 43.839844 49.261719 43.585938 C 49.214844 43.550781 49.171875 43.515625 49.121094 43.484375 C 49.117188 43.484375 49.117188 43.484375 49.113281 43.480469 C 49.089844 43.464844 49.066406 43.453125 49.046875 43.441406 C 48.648438 43.203125 48.265625 43.105469 48.007813 43.039063 C 47.945313 43.023438 47.882813 43.007813 47.78125 42.972656 C 46.324219 42.503906 44.921875 41.464844 43.828125 40.039063 C 43.210938 39.234375 42.75 38.429688 42.453125 37.640625 C 42.453125 37.636719 42.453125 37.632813 42.453125 37.628906 C 42.402344 37.480469 42.390625 37.371094 42.371094 37.386719 C 42.378906 37.375 42.382813 37.367188 42.390625 37.359375 C 42.535156 37.15625 42.890625 36.949219 43.449219 36.738281 C 44.089844 36.515625 45.050781 36.179688 45.84375 35.46875 C 45.855469 35.460938 45.863281 35.453125 45.875 35.445313 C 46.027344 35.300781 46.230469 35.089844 46.386719 34.765625 C 46.617188 34.292969 46.632813 33.742188 46.4375 33.269531 C 46.425781 33.246094 46.414063 33.21875 46.402344 33.195313 C 46.085938 32.546875 45.5625 32.238281 45.277344 32.066406 C 44.683594 31.722656 43.957031 31.644531 43.269531 31.847656 C 43.25 31.855469 43.234375 31.859375 43.214844 31.867188 C 43.210938 31.867188 43.207031 31.867188 43.203125 31.871094 C 43.058594 31.914063 42.925781 31.960938 42.796875 32.007813 C 42.597656 32.074219 42.410156 32.136719 42.296875 32.152344 C 42.273438 32.15625 42.238281 32.164063 42.207031 32.171875 C 42.179688 32.175781 42.15625 32.175781 42.128906 32.183594 C 42.136719 31.933594 42.144531 31.683594 42.15625 31.433594 C 42.167969 31.125 42.179688 30.8125 42.183594 30.503906 L 42.1875 30.300781 C 42.222656 29.089844 42.261719 27.839844 42.066406 26.484375 C 41.652344 24.210938 40.226563 22.058594 38.152344 20.585938 C 36.796875 19.621094 35.140625 19.023438 33.375 18.859375 C 32.84375 18.808594 32.304688 18.78125 31.726563 18.792969 Z M 31.746094 20.792969 L 31.75 20.792969 C 32.253906 20.785156 32.71875 20.804688 33.183594 20.855469 C 34.605469 20.984375 35.925781 21.457031 36.996094 22.214844 C 38.644531 23.390625 39.78125 25.078125 40.097656 26.824219 C 40.257813 27.949219 40.222656 29.113281 40.191406 30.238281 L 40.183594 30.46875 C 40.179688 30.769531 40.167969 31.0625 40.15625 31.355469 C 40.136719 31.84375 40.121094 32.324219 40.132813 32.796875 C 40.128906 32.851563 40.132813 32.90625 40.140625 32.964844 C 40.144531 33.023438 40.148438 33.074219 40.15625 33.199219 C 40.183594 33.589844 40.4375 33.925781 40.804688 34.0625 C 41.28125 34.238281 41.863281 34.261719 42.578125 34.136719 C 42.582031 34.132813 42.589844 34.132813 42.597656 34.128906 C 42.898438 34.085938 43.175781 33.988281 43.449219 33.894531 C 43.558594 33.859375 43.675781 33.816406 43.800781 33.78125 C 43.816406 33.773438 43.828125 33.773438 43.84375 33.765625 C 43.914063 33.746094 44.101563 33.699219 44.265625 33.789063 C 44.371094 33.851563 44.460938 33.910156 44.527344 33.96875 C 44.523438 33.972656 44.519531 33.976563 44.515625 33.980469 C 44.050781 34.390625 43.453125 34.621094 42.792969 34.851563 C 42.78125 34.855469 42.769531 34.859375 42.753906 34.863281 C 42.101563 35.105469 41.296875 35.46875 40.785156 36.167969 C 40.777344 36.179688 40.769531 36.1875 40.761719 36.203125 C 40.371094 36.722656 40.292969 37.464844 40.546875 38.234375 C 40.554688 38.257813 40.558594 38.28125 40.566406 38.300781 C 40.929688 39.289063 41.492188 40.28125 42.238281 41.257813 C 43.597656 43.027344 45.300781 44.277344 47.144531 44.871094 C 47.253906 44.90625 47.375 44.941406 47.515625 44.976563 C 47.574219 44.992188 47.632813 45.007813 47.691406 45.023438 C 47.644531 45.042969 47.597656 45.066406 47.542969 45.089844 L 47.203125 45.21875 C 46.582031 45.445313 45.945313 45.675781 45.265625 45.765625 L 45.261719 45.765625 C 44.734375 45.765625 44.273438 45.9375 43.894531 46.308594 C 43.507813 46.753906 43.351563 47.3125 43.203125 47.851563 L 43.152344 48.03125 C 42.207031 47.925781 41.269531 47.882813 40.414063 47.914063 C 40.371094 47.910156 40.324219 47.910156 40.277344 47.914063 L 39.9375 47.933594 C 39.472656 47.957031 38.988281 47.984375 38.53125 48.148438 C 38.496094 48.160156 38.464844 48.175781 38.429688 48.191406 C 37.59375 48.566406 36.820313 49.066406 36.066406 49.550781 C 35.625 49.835938 35.175781 50.125 34.640625 50.433594 C 34.214844 50.707031 33.714844 50.878906 33.21875 50.925781 C 32.558594 50.972656 31.804688 51.019531 31.019531 50.988281 C 30.988281 50.984375 30.953125 50.980469 30.917969 50.980469 C 30.074219 50.953125 29.308594 50.535156 28.605469 50.085938 C 28.589844 50.078125 28.574219 50.066406 28.5625 50.058594 C 28.277344 49.886719 28.003906 49.707031 27.734375 49.53125 C 26.820313 48.929688 25.875 48.3125 24.765625 48.023438 C 23.441406 47.6875 22.105469 47.871094 20.65625 48.125 C 20.640625 48.050781 20.628906 47.976563 20.609375 47.902344 C 20.550781 47.621094 20.492188 47.355469 20.386719 47.03125 C 20.335938 46.921875 20.304688 46.835938 20.28125 46.773438 C 20.226563 46.621094 20.183594 46.53125 20.15625 46.488281 C 20.050781 46.3125 19.890625 46.171875 19.699219 46.089844 C 19.296875 45.914063 18.871094 45.828125 18.457031 45.746094 C 18.320313 45.71875 18.179688 45.6875 18.050781 45.660156 L 17.871094 45.613281 C 17.296875 45.46875 16.703125 45.316406 16.140625 45.042969 C 17.175781 44.757813 18.140625 44.3125 19.011719 43.714844 C 20.625 42.589844 21.953125 41.050781 22.851563 39.261719 C 23.183594 38.582031 23.539063 37.695313 23.335938 36.800781 C 23.175781 36.09375 22.601563 35.492188 21.6875 35.089844 C 21.503906 35.019531 21.320313 34.953125 21.125 34.886719 C 20.570313 34.6875 20.042969 34.496094 19.597656 34.195313 L 19.464844 34.101563 C 19.417969 34.070313 19.367188 34.035156 19.285156 33.96875 C 19.308594 33.949219 19.34375 33.921875 19.378906 33.894531 C 19.40625 33.882813 19.425781 33.867188 19.445313 33.851563 C 19.484375 33.820313 19.582031 33.761719 19.75 33.777344 C 19.863281 33.8125 19.980469 33.847656 20.089844 33.878906 C 20.390625 33.976563 20.667969 34.058594 20.9375 34.105469 C 20.949219 34.109375 20.957031 34.109375 20.96875 34.109375 C 21.625 34.230469 22.230469 34.246094 22.765625 34.148438 C 23.167969 34.078125 23.496094 33.699219 23.578125 33.300781 C 23.589844 33.265625 23.59375 33.230469 23.597656 33.195313 C 23.679688 32.390625 23.628906 31.570313 23.578125 30.78125 C 23.5625 30.53125 23.546875 30.277344 23.53125 30.015625 C 23.449219 28.476563 23.425781 27.101563 23.921875 25.824219 C 23.929688 25.816406 23.929688 25.808594 23.933594 25.800781 C 24.496094 24.488281 25.375 23.335938 26.480469 22.464844 C 28.203125 21.101563 30.292969 20.804688 31.746094 20.792969 Z"/></svg>